<mxfile host="app.diagrams.net" modified="2024-07-02T02:55:37.173Z" agent="Mozilla/5.0 (Windows NT 10.0; Win64; x64) AppleWebKit/537.36 (KHTML, like Gecko) Chrome/114.0.0.0 Safari/537.36" version="24.0.2" etag="B-9Vn8R31ellM2FE34As" type="github">
  <diagram name="第 1 页" id="eRqCgIvyBkYkjvD03JKt">
    <mxGraphModel>
      <root>
        <mxCell id="0" />
        <mxCell id="1" parent="0" />
      </root>
    </mxGraphModel>
  </diagram>
</mxfile>
